<?xml version="1.0" encoding="UTF-8"?>
<svg xmlns="http://www.w3.org/2000/svg" xmlns:xlink="http://www.w3.org/1999/xlink" width="20pt" height="20pt" viewBox="0 0 20 20" version="1.1">
<g id="surface1">
<path style=" stroke:none;fill-rule:nonzero;fill:rgb(0%,0%,0%);fill-opacity:1;" d="M 4.039062 19.527344 C 3.964844 19.527344 3.890625 19.503906 3.832031 19.460938 C 3.71875 19.378906 3.664062 19.242188 3.6875 19.109375 L 4.792969 12.660156 L 0.109375 8.089844 C 0.0117188 7.996094 -0.0234375 7.855469 0.015625 7.726562 C 0.0585938 7.59375 0.171875 7.5 0.308594 7.480469 L 6.78125 6.539062 L 9.679688 0.671875 C 9.738281 0.546875 9.863281 0.472656 10 0.472656 C 10.136719 0.472656 10.261719 0.546875 10.320312 0.671875 L 13.21875 6.539062 L 19.695312 7.480469 C 19.828125 7.5 19.941406 7.59375 19.984375 7.726562 C 20.023438 7.855469 19.988281 7.996094 19.890625 8.089844 L 15.207031 12.660156 L 16.3125 19.109375 C 16.335938 19.242188 16.28125 19.378906 16.167969 19.460938 C 16.058594 19.539062 15.914062 19.550781 15.792969 19.488281 L 10 16.441406 L 4.207031 19.488281 C 4.15625 19.515625 4.097656 19.527344 4.039062 19.527344 Z M 1.128906 8.085938 L 5.429688 12.277344 C 5.511719 12.359375 5.550781 12.480469 5.53125 12.59375 L 4.515625 18.515625 L 9.832031 15.71875 C 9.9375 15.664062 10.0625 15.664062 10.167969 15.71875 L 15.484375 18.515625 L 14.46875 12.59375 C 14.449219 12.480469 14.488281 12.359375 14.570312 12.277344 L 18.871094 8.085938 L 12.929688 7.222656 C 12.8125 7.203125 12.710938 7.132812 12.660156 7.023438 L 10 1.640625 L 7.339844 7.027344 C 7.289062 7.132812 7.1875 7.203125 7.070312 7.222656 Z M 1.128906 8.085938 "/>
</g>
</svg>
